v -0.35875 0.11125 0.33375
v -0.35875 0.11375 0.33375
v -0.43375 0.14125 0.33125
v -0.49625 0.0962501 0.33625
v -0.51375 -0.00125003 0.37625
v -0.42125 -0.04875 0.36375
v -0.38125 -0.0237499 0.36625
v -0.37875 -0.02625 0.36625
v -0.37875 -0.10875 0.36375
v -0.36375 -0.27875 0.37375
v -0.35875 -0.37875 0.37875
v -0.32625 -0.47875 0.37375
v -0.21375 -0.52625 0
v -0.04625 -0.55125 0
v 0.12625 -0.55625 0
v 0.29375 -0.53875 0
v 0.36375 -0.49125 0.37125
v 0.40375 -0.36625 0.37875
v 0.42125 -0.23375 0.36875
v 0.41375 -0.14125 0.36375
v 0.39625 -0.07875 0.36375
v 0.38875 -0.06375 0.36375
v 0.40125 -0.06625 0.36375
v 0.54375 -0.01625 0.36625
v 0.46125 0.07375 0.61875
v 0.40125 0.0662501 0.67125
v 0.38875 0.05625 0.69125
v 0.40625 0.16625 0.33125
v 0.40125 0.37625 0.31375
v 0.39875 0.51125 0.30625
v 0.39375 0.55375 0
v 0.36375 0.58625 0.29625
v 0.19375 0.61125 0.28875
v -0.07375 0.60625 0.28875
v -0.19375 0.58375 0.29625
v -0.23125 0.56625 0.30125
v -0.24125 0.56375 0.30125
v -0.26125 0.54875 0.30375
v -0.28875 0.53125 0.30625
v -0.30125 0.51625 0.30625
v -0.31875 0.48375 0.31125
v -0.33875 0.41625 0.31125
v -0.35625 0.33375 0.31625
v -0.36625 0.26375 0.32375
v -0.37125 0.21625 0.32875
v -0.37375 0.18375 0.33125
v -0.37375 0.15875 0
v -0.37375 0.14125 0.33125
v -0.37375 0.13875 0.33125
v -0.360455 0.114375 0
vn 0 0 1
vn 0 0 1
vn 0 0 1
vn 0 0 1
vn 0 0 1
vn 0 0 1
vn 0 0 1
vn 0 0 1
vn 0 0 1
vn 0 0 1
vn 0 0 1
vn 0 0 1
vn 0 0 1
vn 0 0 1
vn 0 0 1
vn 0 0 1
vn 0 0 1
vn 0 0 1
vn 0 0 1
vn 0 0 1
vn 0 0 1
vn 0 0 1
vn 0 0 1
vn 0 0 1
vn 0 0 1
vn 0 0 1
vn 0 0 1
vn 0 0 1
vn 0 0 1
vn 0 0 1
vn 0 0 1
vn 0 0 1
vn 0 0 1
vn 0 0 1
vn 0 0 1
vn 0 0 1
vn 0 0 1
vn 0 0 1
vn 0 0 1
vn 0 0 1
vn 0 0 1
vn 0 0 1
vn 0 0 1
vn 0 0 1
vn 0 0 1
vn 0 0 1
vn 0 0 1
vn 0 0 1
vn 0 0 1
vn 0 0 1
s 1
f 41//41 42//42 38//38
f 30//30 33//33 29//29
f 10//10 11//11 13//13
f 27//27 1//1 22//22
f 25//25 23//23 24//24
f 9//9 10//10 22//22
f 8//8 9//9 22//22
f 34//34 44//44 28//28
f 44//44 2//2 28//28
f 6//6 7//7 5//5
f 14//14 15//15 22//22
f 19//19 20//20 15//15
f 19//19 15//15 18//18
f 26//26 27//27 25//25
f 46//46 47//47 2//2
f 40//40 41//41 38//38
f 43//43 34//34 42//42
f 29//29 34//34 28//28
f 1//1 4//4 7//7
f 12//12 13//13 11//11
f 16//16 18//18 15//15
f 27//27 28//28 2//2
f 23//23 25//25 27//27
f 1//1 27//27 2//2
f 4//4 1//1 3//3
f 47//47 48//48 2//2
f 45//45 46//46 2//2
f 43//43 44//44 34//34
f 36//36 42//42 35//35
f 39//39 40//40 38//38
f 36//36 38//38 42//42
f 33//33 34//34 29//29
f 33//33 30//30 32//32
f 21//21 22//22 20//20
f 7//7 8//8 1//1
f 4//4 5//5 7//7
f 13//13 14//14 10//10
f 18//18 16//16 17//17
f 10//10 14//14 22//22
f 15//15 20//20 22//22
f 27//27 22//22 23//23
f 8//8 22//22 1//1
f 48//48 49//49 2//2
f 45//45 2//2 44//44
f 50//50 2//2 49//49
f 36//36 37//37 38//38
f 34//34 35//35 42//42
f 31//31 32//32 30//30
f 50//50 3//3 1//1
