v -0.02375 0.43625 -0.08875
v -0.14875 0.37625 -0.22125
v -0.24125 0.32125 -0.25825
v -0.30625 0.23875 -0.24625
v -0.35375 0.13875 -0.180417
v -0.36625 -0.00625002 -0.14625
v -0.32875 -0.10625 -0.22125
v -0.25375 -0.21375 -0.06125
v 0.05625 -0.21375 -0.06125
v 0.18875 -0.15125 -0.12375
v 0.25625 -0.01125 -0.0420833
v 0.25375 0.14875 -0.04625
v 0.21625 0.25875 -0.0930358
v 0.15875 0.34625 -0.150536
v 0.07625 0.41375 -0.17875
v -0.00884312 0.0793972 -0.235537
v -0.133559 -0.0303944 -0.262866
v -0.188282 0.136632 -0.27125
v -0.0575486 0.227681 -0.246816
vn 0.0398827 0.599409 -0.799449
vn 0.379828 0.378422 -0.844113
vn 0.0411598 0.136677 -0.98976
vn -0.336269 -0.161311 -0.927848
vn -0.468897 -0.245503 -0.848448
vn -0.451711 0.0408632 -0.891228
vn -0.124996 -0.210308 -0.969612
vn 0.0871614 -0.762314 -0.641311
vn 0.122183 -0.573894 -0.809763
vn 0.274463 -0.218709 -0.936396
vn 0.603734 0.0710601 -0.794012
vn 0.595545 -0.0709818 -0.80018
vn 0.53191 -0.0887487 -0.842137
vn 0.441027 -0.078552 -0.89405
vn -0.0552821 0.377843 -0.924218
vn 0.402545 -0.104253 -0.909444
vn 0.0109745 -0.31786 -0.948074
vn -0.163794 -0.0852209 -0.982807
vn 0.263777 0.184184 -0.946836
s 1
f 17//17 8//8 7//7
f 18//18 19//19 16//16
f 10//10 16//16 11//11
f 3//3 18//18 4//4
f 18//18 6//6 5//5
f 11//11 16//16 12//12
f 19//19 13//13 16//16
f 18//18 5//5 4//4
f 16//16 10//10 9//9
f 3//3 19//19 18//18
f 14//14 19//19 15//15
f 16//16 13//13 12//12
f 13//13 19//19 14//14
f 19//19 3//3 2//2
f 17//17 9//9 8//8
f 9//9 17//17 16//16
f 6//6 17//17 7//7
f 6//6 18//18 17//17
f 18//18 16//16 17//17
f 15//15 19//19 1//1
f 19//19 2//2 1//1
